<?xml version="1.0" standalone="no"?>
<!DOCTYPE svg PUBLIC "-//W3C//DTD SVG 1.1//EN" "http://www.w3.org/Graphics/SVG/1.1/DTD/svg11.dtd" >
<svg>
<metadata>
Created by FontForge 20110222 at Tue Jan 27 10:22:07 2015
 By www-data
Copyright (c) 2015 by Roland Huse. All rights reserved.
</metadata>
<defs>
<font id="BiloxiScript" horiz-adv-x="833" >
  <font-face 
    font-family="Biloxi Script"
    font-weight="400"
    font-stretch="normal"
    units-per-em="1000"
    panose-1="2 0 0 0 0 0 0 0 0 0"
    ascent="800"
    descent="-200"
    x-height="178"
    cap-height="645"
    bbox="-582.533 -436.125 1211.12 798.909"
    underline-thickness="50"
    underline-position="-50"
    unicode-range="U+0020-00FC"
  />
    <missing-glyph />
    <glyph glyph-name="space" unicode=" " horiz-adv-x="301" 
 />
    <glyph glyph-name="space" unicode="&#xa0;" horiz-adv-x="301" 
 />
    <glyph glyph-name="k" unicode="k" horiz-adv-x="363" 
d="M258 441q10 4 11 -1.5t-3 -7.5q-23 -19 -39.5 -37.5t-30 -38t-25.5 -41.5t-25 -49q-20 -39 -33.5 -88.5t-24.5 -94.5l7 -8q3 0 2 -6t-6.5 -11t-15 -7t-22.5 6q9 61 30.5 124t50.5 116t61.5 92t62.5 52zM505 -2q6 0 7.5 -2.5t1 -6t-3 -6t-5.5 -2.5q-51 3 -106 13.5
t-106.5 29t-98 46t-81.5 65.5q-7 5 -2.5 12t10.5 12q52 32 108 63t114 57q6 0 6.5 -10.5t-10.5 -13.5q-27 -11 -50.5 -22.5t-46.5 -25t-46 -29.5t-49 -36q35 -32 78.5 -55t90.5 -39.5t95.5 -28t93.5 -21.5z" />
    <glyph glyph-name="r" unicode="r" horiz-adv-x="292" 
d="M372 179q6 -3 6 -7t-3.5 -7t-9.5 -4t-12 1q-24 9 -41 13.5t-31 5.5t-25.5 -1t-23.5 -6q-30 -11 -51.5 -28.5t-38.5 -38.5t-30.5 -44t-27.5 -44q-8 -7 -13.5 -6t-5.5 15v47.5t-0.5 35.5t-1.5 30t-2 31q0 4 4 7t9.5 3.5t10 -2.5t4.5 -12v-20.5t-0.5 -27t-0.5 -29.5v-27
q22 48 53.5 81.5t69 49t78.5 12t83 -27.5z" />
    <glyph glyph-name="o" unicode="o" horiz-adv-x="352" 
d="M424 178q8 3 10.5 -1.5t2 -10.5t-4 -11.5t-8.5 -6.5q-42 -9 -83 -13t-78.5 -5t-69.5 0t-55 2q14 -14 29.5 -37.5t21.5 -47.5q4 -23 -13 -28q-26 -3 -48.5 6t-37.5 27t-22 43t-1 53q3 16 9 27t11 12q12 0 9 -20q-3 -21 -1 -41t9 -36.5t19 -28t29 -15.5q2 16 -10.5 39
t-35.5 46q-4 2 -4.5 7t1.5 10t5 8.5t6 3.5q71 -7 150 -7t160 25z" />
    <glyph glyph-name="w" unicode="w" horiz-adv-x="581" 
d="M489 204q-3 4 -2.5 9.5t3.5 9t8 4t10 -3.5q13 -11 25 -35.5t14.5 -52.5t-9 -55.5t-45.5 -43.5q-28 -13 -58.5 -10.5t-59 16t-53 36.5t-40.5 52q-15 -17 -31.5 -35.5t-35.5 -34t-41 -26t-46 -11.5q-27 -2 -41 15t-19 41.5t-3 51.5t6 44q0 4 3 7t6 3.5t6 -1.5t3 -9
q0 -10 -0.5 -34t4.5 -47t18 -37t41 -4q17 7 33.5 19t32 26.5t30 30t28.5 29.5q6 6 16 5.5t13 -8.5q11 -20 30 -42.5t42.5 -39.5t49.5 -23.5t52 6.5q23 11 30.5 31t6 42t-9.5 42.5t-17 32.5z" />
    <glyph glyph-name="n" unicode="n" horiz-adv-x="370" 
d="M331 88q4 -9 0.5 -13t-10.5 -4.5t-14 2t-8 7.5q-7 15 -11 30.5t-6.5 31.5t-4.5 31t-5 27q-5 23 -30 6q-18 -12 -39 -30.5t-43.5 -41.5t-45.5 -49.5t-44 -53.5q-11 -8 -17.5 1t-4.5 17q3 19 5 34t4.5 29.5t5 31t5.5 37.5q0 3 3.5 6t8 4t7.5 -1t3 -9q-2 -20 -3.5 -43.5
t-3.5 -56.5q13 19 32.5 42.5t41 45.5t44 40t42.5 28q19 8 34 6t21 -20q4 -14 6.5 -30t5 -33.5t7 -35.5t14.5 -36z" />
    <glyph glyph-name="F" unicode="F" horiz-adv-x="283" 
d="M812 519q6 0 6 -9.5t-6 -9.5q-155 7 -299.5 14t-299.5 14q-8 -33 -16.5 -67t-13.5 -60q102 -7 202.5 -2.5t201.5 11.5q13 0 10 -9t-10 -9q-101 -13 -203.5 -17t-204.5 -4q-4 -20 -10 -50.5t-11.5 -65t-11.5 -70t-10.5 -66.5t-7.5 -54.5t-4 -32.5q-1 -8 -4.5 -14.5t-8 -10
t-8 -2.5t-3.5 8q0 6 2.5 30t7 57.5t10 73.5t11 78t10 70.5t7.5 52.5q-42 0 -82.5 1t-88.5 8q-7 3 -7.5 9t3 11.5t9.5 10t13 4.5q41 -7 80.5 -12.5t80.5 -5.5q7 35 13.5 63.5t13.5 62.5h-323q-7 0 -9 4t-1 9.5t4 9.5t6 4q244 0 479 -7.5t473 -27.5z" />
    <glyph glyph-name="x" unicode="x" horiz-adv-x="257" 
d="M255 42q3 -2 1 -5.5t-6 -5.5t-9 -2.5t-8 2.5q-18 14 -32.5 25t-26.5 21q-68 -55 -140 -108t-141 -101q-2 -2 -5 -2t-5.5 1.5t-2.5 4t4 5.5q62 62 132.5 113t139.5 106q-21 20 -41 34.5t-40 28.5q-3 1 -4 5.5t0 8t4 5.5t9 -1q28 -11 54.5 -30.5t44.5 -33.5q11 8 24 18
t22 17q4 3 7 1.5t4 -5t0.5 -7.5t-2.5 -6q-10 -11 -20 -20t-17 -15q14 -13 28 -26.5t26 -27.5z" />
    <glyph glyph-name="m" unicode="m" horiz-adv-x="572" 
d="M564 89q4 -7 1 -13.5t-10 -10.5t-15 -3.5t-13 8.5q-17 25 -36 37.5t-39 1.5q-41 -22 -78 -44t-66 -35q-8 -3 -17.5 -2.5t-20 9t-22.5 27.5t-24 52q-21 -7 -39 -15t-35.5 -18.5t-36.5 -23t-42 -28.5q-11 -8 -17.5 1t-4.5 17q3 19 5.5 33.5t5 28.5t5 29.5t5.5 36.5
q0 3 3.5 6t8 4t8 -1t2.5 -9q-4 -29 -7 -53.5t-8 -62.5q29 25 67.5 48.5t80.5 37.5q12 4 17 1q3 -2 5 -4q7 -35 18 -51t22 -21.5t20 -3.5t13 4q15 6 33.5 16t37.5 20.5t36.5 20t31.5 14.5q7 2 20.5 2t28.5 -6q19 -10 31.5 -20.5t24.5 -29.5z" />
    <glyph glyph-name="p" unicode="p" horiz-adv-x="394" 
d="M406 148q4 -11 2.5 -23.5t-6.5 -25t-12.5 -23.5t-14.5 -18q-21 -18 -47.5 -24t-51.5 -1.5t-44.5 19.5t-26.5 38q-16 -17 -27.5 -31.5t-20.5 -28t-17.5 -28.5t-18.5 -33q-9 -20 -16 -36t-12 -31t-10 -31t-11 -36q-3 -7 -8 -8t-10.5 2t-9 9.5t-1.5 14.5q6 36 9.5 79.5
t6 87.5t5 84t5.5 69q0 8 9.5 8t9.5 -8q0 -42 -0.5 -98.5t-4.5 -116.5q12 27 24 49t25 41.5t28.5 38t34.5 38.5q5 10 9 16q4 5 8 6t9 -7q23 14 46 22.5t52 14.5q35 7 56.5 -1.5t30.5 -27.5zM378 119q2 11 -3.5 18.5t-16 11.5t-26 4t-32.5 -5q-21 -5 -40.5 -14.5t-33.5 -23.5
q6 -23 24.5 -37t49.5 -14q26 3 48 20t30 40z" />
    <glyph glyph-name="a" unicode="a" horiz-adv-x="268" 
d="M269 197q2 -4 0 -8.5t-6.5 -7.5t-10 -4.5t-8.5 1.5q-14 11 -33.5 15.5t-46.5 -1.5q-26 -6 -49 -21.5t-39 -33t-21.5 -32t4.5 -17.5q14 -5 33 -2.5t37.5 9t33 14.5t20.5 15q12 14 22 14t12 -6q2 -14 3.5 -27.5t1.5 -24.5q0 -5 -8 -11t-16 3q-5 5 -7 13t-2 13
q-6 -6 -21.5 -13.5t-35.5 -13t-41 -9t-37 -1.5q-14 2 -24 8.5t-9 17.5q1 18 13.5 39.5t32.5 42t46.5 36t56.5 21.5q35 7 58 1t41 -30z" />
    <glyph glyph-name="b" unicode="b" horiz-adv-x="454" 
d="M526 173q9 3 11.5 0t2 -8t-4 -11t-7.5 -7q-16 -6 -37.5 -12t-43.5 -11.5t-42.5 -9t-34.5 -5.5q7 -31 -2 -49.5t-26 -28.5t-39 -12.5t-40 -1.5q-33 2 -65 12.5t-59 29.5t-47.5 47t-30.5 64q-14 47 -8.5 94.5t20.5 85.5q4 10 11.5 22t17.5 21t22 10.5t24 -9.5
q8 -8 16.5 -21.5t16 -29.5t13.5 -32.5t10 -29.5q11 -38 17 -83t6 -85q0 -3 -2.5 -6t-6 -3.5t-6 1.5t-2.5 8q0 27 -3.5 58.5t-11 64t-19.5 62.5t-28 53q-5 7 -9 11t-8.5 6t-8.5 0q-15 -8 -24.5 -33t-14 -54.5t-3.5 -59t7 -46.5q23 -60 67 -89.5t91 -37.5q13 -2 33.5 -2.5
t36 4t20.5 15.5t-11 31q-3 6 -2 12.5t4.5 11t8 8t7.5 3.5q15 2 36.5 5.5t46.5 8.5t51.5 12t49.5 16z" />
    <glyph glyph-name="e" unicode="e" horiz-adv-x="410" 
d="M488 173q5 6 6.5 -2.5t-6.5 -13.5q-57 -37 -115 -62.5t-98 -39.5q-21 -7 -49 -13.5t-56.5 -7.5t-54.5 6t-44 28t-19.5 49t9.5 54.5t31.5 46t47.5 22.5q18 1 29 -3t16.5 -10.5t5.5 -15t-3 -15.5q-5 -10 -15.5 -18t-24 -12.5t-29 -3.5t-29.5 10q-8 -15 -10.5 -31t4.5 -30
q7 -16 20.5 -25.5t30 -14.5t34.5 -5.5t36 2.5q72 11 144.5 40.5t138.5 64.5zM126 210q-15 -8 -25 -20q14 -7 29 -6.5t20 10.5q8 11 1 19.5t-25 -3.5z" />
    <glyph glyph-name="v" unicode="v" horiz-adv-x="372" 
d="M450 179q6 0 6.5 -6.5t-14.5 -9.5q-9 -2 -35.5 -2t-63 -1t-79 -4.5t-82.5 -13.5q4 -26 10 -66t6 -76q0 -6 -9 -10t-15 2q-28 22 -47.5 47t-33 49t-22 45t-13.5 35q0 3 4 5.5t9.5 4t10 1t6.5 -4.5q4 -11 9.5 -26t14 -33.5t21.5 -39.5t33 -43q0 29 -1.5 56.5t-6.5 53.5
q-2 14 8 24q38 10 83 14t85.5 5t72 -1t43.5 -5z" />
    <glyph glyph-name="s" unicode="s" horiz-adv-x="207" 
d="M109 241q8 0 8 -6q0 -5 -4.5 -6.5t-9.5 -4t-9.5 -7t-4.5 -14.5q0 -15 6.5 -33t17.5 -38.5t25 -44t28 -48.5q6 -14 6 -23q0 -19 -17 -25.5t-34 -6.5q-23 0 -50 8.5t-51 25.5q-2 1 -2 4q0 6 10 13.5t17 7.5q3 0 4 -1q15 -8 34 -17.5t33 -9.5q10 0 10 6q0 1 -0.5 2t-0.5 2
q-11 28 -22.5 49t-21 38.5t-15.5 34t-6 36.5q0 29 14 43.5t35 14.5z" />
    <glyph glyph-name="c" unicode="c" horiz-adv-x="341" 
d="M274 70q6 2 8.5 0t3.5 -5.5t-0.5 -7t-3.5 -4.5q-19 -10 -34.5 -17t-30.5 -12t-32 -8t-39 -4q-11 -1 -27.5 0.5t-33.5 5.5t-31.5 10.5t-22.5 15.5q-12 12 -13 28.5t5 33.5t18 32t25 25q29 25 70.5 40t89.5 18t98 -7.5t97 -35.5q10 -5 4 -11.5t-13 -3.5q-48 19 -98.5 25.5
t-96 2t-82.5 -18.5t-59 -35q-26 -25 -26 -52t32 -38q50 -13 95.5 -5t96.5 28z" />
    <glyph glyph-name="d" unicode="d" horiz-adv-x="450" 
d="M431 425q-6 -24 -10.5 -43.5t-7.5 -39t-5 -39t-4 -43.5q-4 -48 1.5 -98t19.5 -112q1 -5 -2.5 -8.5t-8.5 -5.5t-10 -1t-8 7q-6 13 -11 37.5t-8.5 52.5t-5 56t-0.5 48q-19 -45 -41 -76.5t-46 -54t-50 -37.5t-54 -27q-57 -23 -92.5 -22t-53.5 11q-17 9 -24 24.5t-5 34.5
q2 20 18.5 40.5t42 37.5t57.5 30.5t63.5 20.5t61 5.5t50.5 -13.5q8 -5 1 -11.5t-17 -4.5q-12 3 -33 4t-47 -2t-54.5 -12t-55.5 -27q-31 -20 -47 -43t-8 -42q4 -9 14 -16.5t29 -8.5t48.5 6t71.5 27q28 13 49 29.5t38.5 37.5t31.5 46.5t29 57.5q18 42 29.5 87t22.5 87
q1 6 7 10t12 4t10 -3.5t2 -10.5z" />
    <glyph glyph-name="f" unicode="f" horiz-adv-x="311" 
d="M424 458q18 -18 29 -41t16.5 -48.5t6 -52t-3.5 -51.5q0 -8 -9.5 -8t-9.5 8q3 25 2.5 53t-7.5 54t-22.5 48.5t-40.5 37.5q-36 22 -77 19.5t-77 -38.5q-22 -22 -37 -50t-25 -60t-16 -65.5t-9 -66.5q66 0 129.5 -5.5t121.5 -13.5q7 0 7 -9.5t-7 -9.5q-66 7 -125.5 8
t-125.5 1q36 -18 67.5 -45t50 -60t20.5 -70t-22 -76q-9 -14 -20 -18t-23 -1t-23.5 11t-20.5 18q-14 15 -25 31.5t-19 37.5t-12.5 48.5t-5.5 64.5v54q-14 7 -27 11t-37 4h-38q-5 0 -5.5 4.5t2.5 10t8.5 10t13.5 4.5h87q7 36 16.5 76t24 77t35 68t49.5 49q22 15 46.5 20.5
t49 2.5t47.5 -13.5t41 -28.5zM260 -44q7 27 -0.5 55t-25 53.5t-41.5 47.5t-49 37q-8 -44 -3.5 -81t22.5 -74q6 -11 17.5 -30t25.5 -31t28.5 -9.5t25.5 32.5z" />
    <glyph glyph-name="g" unicode="g" horiz-adv-x="431" 
d="M504 179q9 -1 11.5 -5t-1 -8t-13 -7t-24.5 -2q-29 2 -54 3t-50 0t-50 -5t-54 -13q10 -61 0 -123t-38 -116q-20 -39 -48.5 -76t-63.5 -66.5t-76 -49.5t-86 -24q-13 -3 -31.5 -3t-37 3.5t-34.5 11.5t-24 22q-15 26 -10.5 59t16.5 60q17 43 44 78.5t60 66t71 57t76 50.5
q-9 -5 -18 -5.5t-15 1.5q-4 1 -9 6.5t-7 13.5q-4 21 4.5 40t27.5 32.5t48 19.5t65 2q3 0 3 -4t-3 -8.5t-8.5 -7.5t-14.5 -3q-18 1 -36 -3.5t-31.5 -13t-21 -21t-4.5 -28.5q26 -2 47.5 7t40 23t37 31t38.5 31q8 5 14 2t9 -7q4 -5 6.5 -12.5t4.5 -21.5q62 19 118 19.5
t122 -6.5zM239 178q-13 -11 -29.5 -23t-29.5 -20q17 5 32.5 12t32.5 12q0 5 -2.5 10.5t-3.5 8.5zM141 -184q61 66 90.5 148.5t19.5 170.5q-29 -9 -54.5 -19.5t-50 -23t-50.5 -27.5t-56 -34q-21 -13 -40.5 -29.5t-36.5 -34.5t-31.5 -36t-25.5 -34q-10 -14 -19.5 -30t-17 -33
t-11 -34.5t-1.5 -33.5q0 -23 11 -34t27.5 -15.5t36 -3.5t35.5 3q51 11 95 34.5t79 65.5z" />
    <glyph glyph-name="h" unicode="h" horiz-adv-x="522" 
d="M534 54q4 -6 0 -10t-12.5 -5t-18.5 2t-16 11q-12 16 -28 37t-40.5 37.5t-59.5 23.5t-85 -5q-22 -6 -47.5 -18.5t-52 -28.5t-51.5 -33.5t-46 -33.5q-11 -8 -17.5 1t-4.5 17q2 13 6.5 47.5t11 79.5t14 96t14 97t11.5 81.5t7 49.5q1 7 7.5 12.5t13 7.5t11.5 0.5t4 -8.5
q-1 -10 -6.5 -43t-12.5 -78t-15.5 -96.5t-16 -97.5t-13 -81.5t-6.5 -47.5q16 15 40.5 32.5t52 33t56.5 27.5t54 16q52 10 92.5 -2t70.5 -34t50.5 -47t32.5 -40z" />
    <glyph glyph-name="q" unicode="q" horiz-adv-x="684" 
d="M761 181q6 0 7 -3t-1.5 -6.5t-6 -7t-6.5 -3.5q-40 0 -77 -6.5t-73 -20.5t-72 -35t-75 -50q-23 -20 -45.5 -41t-43 -47t-38 -58t-30.5 -73q-5 -10 -16.5 -8.5t-11.5 11.5q21 84 34.5 175t33.5 183q-26 -20 -44 -34.5t-33 -26t-28 -20.5t-28 -18q-37 -22 -79.5 -35.5
t-77.5 0.5q-18 10 -24 25.5t-2 32t16.5 32t31.5 26.5q22 13 47 19t48.5 6.5t44.5 -3.5t36 -12q5 -2 5.5 -5t-1.5 -5.5t-5 -3.5t-6 1q-14 5 -33.5 7.5t-41 2t-42.5 -6t-38 -15.5q-18 -11 -26 -26.5t-5.5 -28.5t15 -20.5t35.5 -2.5q44 9 76.5 26t68.5 43q25 20 46.5 37.5
t54.5 46.5q5 5 11 -0.5t4 -15.5q-5 -27 -9.5 -59.5t-9 -66t-9.5 -67t-10 -62.5q30 32 58 57t58 50q30 24 68.5 46t80.5 38.5t85 24.5t83 3z" />
    <glyph glyph-name="t" unicode="t" horiz-adv-x="262" 
d="M912 364q5 0 5 -7t-5 -7q-150 -10 -297.5 -24t-293.5 -29q-55 -5 -101.5 -9.5t-101.5 -9.5q-3 -10 -6.5 -20t-7.5 -22.5t-9.5 -28.5t-11.5 -39q-4 -16 -9.5 -37.5t-7 -41.5t4 -35.5t22.5 -20.5q8 -2 19 -0.5t22.5 5.5t23 9.5t19.5 10.5q40 25 82 57t77 62q10 5 10.5 -2
t-4.5 -12q-10 -10 -23.5 -24t-28.5 -28.5t-30.5 -28t-27.5 -20.5q-12 -10 -34 -24.5t-46.5 -25.5t-49 -14t-41.5 9q-15 12 -20.5 31.5t-4.5 41.5t5.5 44t10.5 40q6 22 10.5 38t9 28.5t8.5 23t7 21.5q-40 -3 -71 -5t-58 -2.5t-52.5 0.5t-55.5 4q-16 1 -15 7t15 6
q31 -1 59 -0.5t56.5 2t59.5 4.5t68 6q5 17 9 31t9 25q1 6 7 11t12 7t10.5 0.5t3.5 -8.5q-2 -14 -8.5 -28.5t-13.5 -36.5q59 5 108 9.5t104 9.5q146 15 289 31t289 16z" />
    <glyph glyph-name="y" unicode="y" horiz-adv-x="540" 
d="M620 178q5 0 5 -4q0 -3 -2.5 -7.5t-7.5 -6.5q-63 -15 -119 -29t-107 -36q9 -33 9 -72q0 -46 -13.5 -96t-42 -92t-73.5 -69.5t-108 -27.5q-46 0 -77 23t-31 77q0 37 18 70t45.5 60t60.5 49t62 37q11 6 25.5 13t29.5 14.5t30 14.5t27 12q-12 26 -30 38.5t-41 12.5
q-31 0 -58.5 -19.5t-54.5 -43.5t-54 -43.5t-57 -19.5q-5 1 -9 4q-9 5 -9 22q0 12 2.5 33.5t7 42.5t10.5 36.5t13 15.5q5 0 11.5 -3.5t4.5 -11.5q-4 -20 -12.5 -50.5t-8.5 -62.5q28 13 53 34.5t50.5 42.5t53.5 36t62 15q32 0 56 -21t37 -47q30 12 58 21t57 15.5t59.5 12
t64.5 10.5h3zM265 -207q28 18 49 42t34 52.5t19.5 59t6.5 61.5q0 20 -2.5 39.5t-7.5 37.5q-65 -25 -117 -56.5t-94 -72.5q-9 -9 -19.5 -22t-19.5 -28.5t-15 -32.5t-6 -33q0 -19 8.5 -32.5t22 -22t29.5 -12.5t32 -4q44 0 80 24z" />
    <glyph glyph-name="z" unicode="z" horiz-adv-x="362" 
d="M438 178q9 5 8.5 -4t-11.5 -15q-66 -44 -131.5 -73t-121.5 -44t-99.5 -15t-65.5 15q-3 2 -4 5q-2 6 4 15q15 15 34 28.5t38.5 26t37.5 24t32 23.5q10 7 10 12t-7 8t-19 4.5t-26 1.5q-6 0 -10.5 4t-6.5 8t-0.5 7.5t9.5 3.5q12 1 30.5 1t36 -2.5t30.5 -7.5t13 -15
t-19 -26.5t-51 -41.5q-26 -20 -44.5 -31t-37.5 -27q13 -7 41.5 -3.5t64.5 13t76 23.5t76.5 29t66.5 29t46 24z" />
    <glyph glyph-name="j" unicode="j" horiz-adv-x="382" 
d="M459 178q7 -2 7 -4.5t-4 -5.5t-10.5 -4.5t-12.5 -1.5q-26 2 -48.5 2t-44 -3.5t-44.5 -10.5t-49 -20q-19 -10 -40 -23t-39 -25q28 -37 59.5 -86.5t53.5 -103.5q8 -20 15 -44t9 -48.5t-4 -48t-24 -41.5q-25 -24 -58.5 -31.5t-68.5 -2.5t-67.5 22t-55.5 42q-33 36 -44.5 84
t4.5 95q9 26 25 50t35.5 45.5t41.5 40.5t44 35q-19 23 -36 40.5t-41 34.5q-5 5 2.5 12.5t14.5 3.5q23 -15 42.5 -35t36.5 -42q29 20 62 38t65 29q48 16 88.5 16.5t85.5 -9.5zM282 -184q-8 37 -22.5 74t-32.5 70t-37 61t-35 48q-26 -19 -45.5 -35.5t-38.5 -41.5
q-14 -20 -27.5 -46t-18.5 -50q-5 -27 -0.5 -58t17.5 -52q18 -29 45 -50t58.5 -30t63.5 -2.5t59 33.5q14 14 16.5 33.5t-2.5 45.5zM127 388q9 2 16.5 1.5t18 -3.5t25.5 -7t39 -8q13 -2 15.5 -5t-1.5 -6t-11.5 -4.5t-14.5 -1.5q-17 1 -38 2t-43 4q-21 2 -22 12.5t16 15.5z" />
    <glyph glyph-name="l" unicode="l" horiz-adv-x="480" 
d="M319 453q-11 6 -29.5 0.5t-38.5 -17t-39 -26.5t-31 -28q-47 -54 -67.5 -101.5t-22.5 -101.5q1 -36 17 -57t38.5 -32t47.5 -14.5t45 -3.5q45 -1 87.5 7t81.5 22t73.5 33t62.5 40q3 3 8 4.5t9 1.5t5 -2.5t-3 -7.5q-14 -17 -40.5 -36.5t-56.5 -33.5q-38 -17 -69 -28
t-58 -17.5t-51.5 -9t-48.5 -2.5q-44 1 -85.5 14t-64.5 46q-13 19 -18.5 40.5t-5.5 42t3.5 40t9.5 36.5q13 39 36.5 77.5t53.5 67.5q10 10 26 24t36 25.5t43 19t48 6.5q24 -2 32.5 -18t3.5 -36q-4 -14 -17.5 -37.5t-35 -50.5t-49.5 -54.5t-60 -50.5q-17 -12 -29 -10.5t-3 9.5
q40 34 72.5 71t53.5 68.5t29 53.5t1 26z" />
    <glyph glyph-name="A" unicode="A" horiz-adv-x="578" 
d="M527 618q13 7 18.5 2t4.5 -13q-7 -89 -13 -168t-10.5 -155t-7.5 -152.5t-3 -160.5q0 -14 -9.5 -16.5t-19.5 5.5q-38 31 -72.5 63t-71 63t-76 61t-86.5 57q-2 2 -17.5 -20t-37.5 -55t-46.5 -69.5t-43.5 -64.5q-1 -2 -5.5 -3t-8.5 -1t-6.5 2t0.5 7q12 20 31 50t40.5 61.5
t41.5 60t34 45.5q-34 21 -63 37t-59.5 28t-64 19.5t-76.5 10.5q-12 1 -28 0t-31 -4t-26.5 -8t-14.5 -11q-4 -6 0 -14.5t11.5 -16.5t16 -15t12.5 -11q4 -5 3 -11.5t-14 0.5q-8 4 -18 10.5t-18.5 14.5t-14.5 17t-6 20q0 17 10.5 27.5t24.5 18.5q19 6 40.5 8.5t43.5 2t44 -3.5
t41 -7q56 -13 105.5 -37t97.5 -54q72 104 157 199.5t191 180.5zM198 226q42 -27 82.5 -56t77.5 -58.5t69 -58t58 -53.5q1 33 3 79t5 98t6.5 108t7 109.5t7.5 101t8 83.5q-94 -76 -176.5 -164.5t-147.5 -188.5z" />
    <glyph glyph-name="C" unicode="C" horiz-adv-x="838" 
d="M911 178q12 3 13 -4.5t-13 -12.5q-77 -33 -149.5 -57.5t-149.5 -41.5t-163.5 -26t-191.5 -10q-45 0 -87 11t-70.5 32.5t-38 53t10.5 70.5q17 35 42 67.5t53.5 62.5t59 56.5t59.5 48.5q28 23 72.5 54t95 58.5t101.5 45t93 13t70 -37.5t32 -107q0 -14 -7.5 -14t-7.5 14
q-3 15 -7 31t-10 31t-15 27.5t-24 20.5q-10 5 -24 7t-30 1.5t-31 -3.5t-27 -9q-118 -48 -227.5 -125.5t-191.5 -180.5q-45 -51 -52 -88.5t14 -62t64 -36.5t96 -12q93 0 170.5 8t151.5 24t150.5 39t168.5 52z" />
    <glyph glyph-name="D" unicode="D" horiz-adv-x="523" 
d="M438 334q15 -26 31 -59.5t25 -69.5t7.5 -71.5t-19.5 -63.5q-13 -24 -35.5 -37.5t-49 -21t-54.5 -9.5t-51 -2q-57 0 -109 7.5t-114 27.5q-19 -18 -46 -30t-57.5 -18t-61.5 -4.5t-57 12.5q-20 8 -35.5 22.5t-21.5 37.5q-9 29 7 40.5t43 13.5q56 3 111.5 -11.5t109.5 -34.5
q42 43 72 97t49 114.5t28.5 124t11.5 124.5q-39 28 -84 51t-93 34t-97 7t-95 -30q-11 -5 -14.5 0t1.5 10q39 26 81.5 35.5t85 6.5t84.5 -17t81 -35q11 -5 25.5 -14.5t31.5 -20.5v56q0 11 10.5 11t10.5 -11v-69q52 -43 101.5 -91.5t86.5 -111.5zM-127 16q50 -12 90.5 -3
t76.5 35q-27 8 -61 18t-66.5 16.5t-58 6t-36.5 -12.5q-8 -8 -4.5 -17t13.5 -17t23 -15t23 -11zM96 55q33 -9 74 -17.5t83.5 -12t82 -0.5t69.5 17t46.5 40.5t13.5 70.5q-2 54 -21 104t-49 94.5t-68 83.5t-77 71q-5 -57 -15 -116t-28 -117t-45 -113.5t-66 -104.5z" />
    <glyph glyph-name="E" unicode="E" horiz-adv-x="968" 
d="M1044 175q10 5 9.5 -2t-9.5 -12q-69 -37 -134.5 -60.5t-133 -37t-138 -19t-149.5 -6.5q-41 -1 -78 -0.5t-74.5 3t-77 8.5t-84.5 16q-57 13 -89.5 39.5t-35.5 52.5q-3 24 18 46.5t70 40.5q35 13 79 27.5t88 25.5q72 18 142 36.5t142 41.5q-30 27 -66 48t-75 36.5t-79 27
t-78 19.5q-6 3 -7.5 7.5t0 9.5t5.5 8.5t9 3.5q52 -6 108.5 -12t112 -11t106.5 -6.5t90 1.5q9 1 10 -2.5t-2 -8t-8.5 -8.5t-9.5 -4q-71 0 -137.5 1t-138.5 6q50 -16 95.5 -46.5t93.5 -62.5q9 -6 8 -12.5t-14 -11.5q-55 -20 -120.5 -36t-132.5 -34t-131.5 -39t-118.5 -49
q-26 -13 -23 -35q2 -13 19.5 -28.5t51.5 -26.5q48 -15 103 -24t119 -12.5t139 -1.5t164 11q48 4 92 10.5t88 16.5t88.5 25.5t93.5 39.5z" />
    <glyph glyph-name="G" unicode="G" horiz-adv-x="1125" 
d="M1199 177q11 0 12 -6.5t-6 -11.5q-23 -8 -43.5 -15t-42.5 -15.5t-46.5 -19t-55.5 -25.5q-48 -26 -90 -52.5t-85 -58.5q8 -31 7.5 -65.5t-6 -68.5t-15.5 -66t-20 -58q-26 -43 -59 -77.5t-81 -54.5q-13 -5 -32 -11.5t-38 -7.5t-34.5 6t-21.5 28q-5 18 -2 38t10.5 40.5
t17 39.5t17.5 34q37 54 75 103.5t86 91.5q15 15 31.5 26t25.5 22q-2 44 -15.5 70.5t-28.5 37.5q-21 15 -51.5 10.5t-67.5 -20.5t-78.5 -40.5t-84 -50.5t-84 -49.5t-79.5 -37.5q-34 -16 -75 -28t-78.5 -10.5t-66 20.5t-38.5 66q-11 52 -1 103t33 97.5t55 87.5t65 74
q69 75 154.5 123t179.5 65q47 6 98 7t98 -9t87.5 -33.5t66.5 -67.5q5 -5 -1 -9t-6 2q-24 31 -55.5 49.5t-67 28.5t-72 12t-70.5 0q-111 -6 -200.5 -49.5t-168.5 -118.5q-43 -41 -78.5 -85.5t-61.5 -101.5q-11 -21 -19.5 -46.5t-11.5 -52.5t0.5 -53.5t16.5 -49.5
q13 -18 31.5 -26t39.5 -8.5t43 3.5t40 10q46 15 88.5 37t84 47l83 50t85.5 48q18 11 39.5 21.5t44.5 16t46 4t44 -14.5q21 -11 42 -39.5t27 -73.5q48 31 92.5 56.5t88.5 45.5t89 36.5t94 29.5zM815 -51q-26 -15 -53 -38.5t-53 -53t-49 -62t-40 -65.5q-6 -8 -17.5 -29.5
t-19 -44.5t-5 -40.5t26.5 -17.5q59 5 100.5 40t67.5 83q26 54 39.5 114.5t2.5 113.5z" />
    <glyph glyph-name="H" unicode="H" horiz-adv-x="734" 
d="M576 679q-8 -64 -21 -135t-30 -142t-36.5 -139t-39.5 -126q87 7 176 16.5t186 23.5q6 0 9 -5t-9 -8q-99 -18 -189.5 -30.5t-180.5 -20.5q-13 -35 -25.5 -65t-23.5 -53q-2 -4 -6 -6.5t-8 -3t-6.5 1t-0.5 6.5q8 20 18.5 50t21.5 67q-72 -5 -143 -8t-145 -3
q-17 -48 -32.5 -88.5t-29.5 -69.5q-2 -4 -6 -6.5t-8 -3t-6.5 1t-0.5 6.5q10 26 23.5 67.5t29.5 93.5q-59 1 -119 3t-125 6q-6 0 -6 7t6 7q67 -2 129 -2.5t122 0.5q18 59 37.5 123t36.5 121t31 102.5t22 67.5q2 5 8 9.5t12 7t10.5 1.5t3.5 -7q-8 -23 -21.5 -69t-31 -104.5
t-37.5 -124t-40 -126.5q73 2 144 4.5t143 7.5q17 57 35.5 125t35.5 139t31 140.5t22 129.5q1 6 6.5 10.5t12 6.5t11.5 1t4 -7z" />
    <glyph glyph-name="I" unicode="I" horiz-adv-x="402" 
d="M407 564q9 -74 -4.5 -159t-38.5 -172q-10 -33 -25.5 -72t-37.5 -73.5t-51 -60t-66 -32.5q-33 -7 -59 7t-44 40.5t-28 60.5t-10 67q0 9 8 10t8 -4q6 -28 18.5 -60t31 -55.5t43 -32t54.5 9.5q31 16 53 43t38.5 59.5t28.5 67.5t23 68q20 69 30 135.5t2 134.5q-3 28 -17 42
t-33.5 20.5t-42.5 8t-44 4.5q-4 0 -6.5 4t-3 8.5t1.5 8.5t8 3q22 -2 48.5 -3.5t49.5 -8.5t41 -23t24 -46z" />
    <glyph glyph-name="J" unicode="J" horiz-adv-x="512" 
d="M388 606q54 -101 77.5 -203t6 -200.5t-81 -190.5t-184.5 -172q-44 -29 -95.5 -52.5t-106 -39t-111 -21.5t-110.5 2q-55 7 -104.5 27.5t-94.5 49.5t-86.5 65.5t-79.5 76.5q-2 5 3.5 11.5t7.5 1.5q38 -35 79 -67t85.5 -59t93.5 -46t103 -27q99 -14 200 12.5t186 80.5
q103 66 167 147t88.5 174t9 195.5t-70.5 210.5q-85 -2 -164.5 -5.5t-163.5 0.5q-7 -1 -7.5 6.5t5.5 9.5q84 3 166.5 6.5t166.5 11.5q5 0 11 -2q3 -1 4 -3z" />
    <glyph glyph-name="K" unicode="K" horiz-adv-x="477" 
d="M336 651q5 5 8.5 5t5.5 -2.5t2.5 -6t-1.5 -6.5q-30 -37 -58 -82.5t-54 -95t-49.5 -100t-43.5 -97.5q-23 -50 -35 -94t-23 -89l7 -8q3 0 1 -6t-8.5 -11t-17 -7t-23.5 6q10 54 31 115t48 121.5t58 118t59.5 105.5t53 83t39.5 51zM516 -13q7 0 9 -3t1 -6t-4 -5.5t-6 -2.5
q-51 3 -107.5 15t-110.5 32.5t-102 50t-83 67.5q-7 5 -2.5 12t10.5 12q28 19 73.5 51t100.5 70t116 79t119 78.5t109.5 68t87.5 47.5q6 0 6.5 -10.5t-10.5 -13.5q-24 -14 -71 -44.5t-105.5 -69t-121.5 -81t-119 -80.5t-99 -68.5t-60 -43.5q35 -32 79 -57.5t92.5 -44.5
t99 -32.5t98.5 -20.5z" />
    <glyph glyph-name="L" unicode="L" horiz-adv-x="964" 
d="M1039 178q11 2 9.5 -5t-9.5 -12q-68 -35 -148.5 -59.5t-167 -39.5t-176 -21.5t-176 -6.5t-167.5 5.5t-150 15.5q-9 0 -12.5 7t5.5 11q63 58 112.5 132.5t88.5 149.5t68 144.5t52 119.5q2 5 6 8.5t7.5 4.5t5.5 -1t0 -7q-21 -55 -47.5 -124.5t-61.5 -143t-81 -146
t-105 -132.5q169 -19 302 -19.5t245 13.5t208.5 41.5t191.5 64.5z" />
    <glyph glyph-name="M" unicode="M" horiz-adv-x="1024" 
d="M1100 177q5 5 8.5 -3t-1.5 -13q-28 -28 -64 -60.5t-75 -59.5t-80 -43.5t-78 -11.5q-42 7 -60.5 33.5t-24.5 62t-5.5 74t-3.5 69.5q-39 -42 -72 -88.5t-79 -87.5q-19 -14 -42 -29t-51 -15q-30 1 -44.5 19.5t-20 45t-3.5 58t5 58.5q11 106 41.5 231.5t71.5 252.5
q-73 -73 -144.5 -148t-137 -153.5t-122 -162.5t-98.5 -175q-5 -6 -11.5 -5.5t-1.5 11.5q42 99 104 188.5t128 174.5q71 90 148.5 171t152.5 162q11 9 20.5 4t4.5 -17q-20 -79 -42 -156t-40.5 -154.5t-32 -156.5t-17.5 -160q0 -12 3.5 -23t11 -19t18.5 -12t25 -2q12 3 26 11
t27.5 19t26 22.5t21.5 21.5q19 21 32.5 38t26.5 34.5t28 35.5t36 41q11 11 18 8t9 -12q4 -19 4.5 -44.5t1.5 -52.5t3.5 -53t11 -46t24 -32t41.5 -10q33 0 74 19t80 45t71 52.5t47 42.5z" />
    <glyph glyph-name="at" unicode="@" horiz-adv-x="619" 
d="M570 200q5 -39 -23.5 -64t-74.5 -22q-27 2 -54 11t-54 15.5t-53.5 6t-53.5 -18.5q-5 0 -12.5 4t-7.5 9q5 32 21 51.5t38.5 27.5t49.5 4.5t54 -18.5q5 -5 1 -11.5t-14 -1.5q-17 7 -36 10.5t-36 0.5t-31 -14t-21 -31q19 5 35.5 10.5t36.5 3.5q26 -2 46.5 -11.5t45.5 -13.5
q12 -3 27.5 -5.5t31 -2.5t29 4t22.5 15q9 12 10 25t-3 26t-11 23.5t-14 17.5q-45 51 -103.5 69.5t-120.5 -2.5q-51 -17 -94.5 -55.5t-68.5 -82.5q-12 -20 -21 -42.5t-13 -45.5t-1 -46t15 -43q20 -27 51 -38.5t66.5 -13t71.5 3t66 9.5q5 0 5 -6.5t-5 -6.5q-27 -8 -59 -14
t-64.5 -7t-63.5 6.5t-55 27.5q-34 24 -48 58.5t-4 78.5q10 49 38 96.5t67.5 83.5t88.5 57t100 18q32 -2 66 -14t62.5 -32t49 -48t25.5 -62z" />
    <glyph glyph-name="N" unicode="N" 
d="M774 361q2 -28 3.5 -59t1 -63t-2.5 -63.5t-7 -59.5q-3 -19 -8.5 -39t-15 -38t-24 -32.5t-35.5 -22.5q-35 -12 -74 -2t-69 37q-31 28 -55.5 64t-44 76t-34 81t-24.5 79q-20 62 -34.5 128t-19.5 133q-42 -64 -80.5 -131t-70.5 -136t-55.5 -141t-33.5 -146q0 -11 -7 -11
t-7 11q8 79 33 157t60 154t77 149t84 142q5 5 16 4t11 -11q0 -11 0.5 -24t1.5 -24q10 -83 29 -164t51 -164q15 -42 35.5 -82t46.5 -75q10 -13 22.5 -26.5t27.5 -25.5t31.5 -20t34.5 -11q29 -2 47.5 10t30.5 33q12 19 18.5 44.5t10.5 51.5t5 50.5t1 43.5q0 84 -8 157.5
t-23 150.5q-2 10 7.5 13.5t12.5 -7.5q16 -46 22.5 -95.5t11.5 -95.5z" />
    <glyph glyph-name="O" unicode="O" 
d="M815 373q8 -16 11 -32t3 -33q0 -61 -28.5 -107.5t-73.5 -80.5t-99.5 -56.5t-106.5 -34.5q-52 -13 -106 -20.5t-111 -7.5q-17 0 -42.5 3t-54.5 10t-58 19t-52 30t-37.5 42t-14.5 56q0 40 21.5 83t58 84t86 77.5t105.5 64t116.5 43.5t118.5 16q42 0 83 -9.5t79 -29.5
q3 -3 3 -8q0 -8 -6 -8q-3 0 -4 2q-34 16 -70 23t-74 7q-42 0 -95 -12t-107.5 -34.5t-106.5 -53.5t-92.5 -69.5t-65 -83t-24.5 -92.5q0 -39 23.5 -64.5t59.5 -40.5t78.5 -20.5t80.5 -5.5q22 0 67 4.5t99 16t111 31t104 50t77 72.5t30 99q0 45 -23 75.5t-58.5 49.5t-77.5 28.5
t-79 12.5q-6 0 -6 6q0 8 13.5 8h22.5q31 0 65 -6t64 -19t54.5 -34t38.5 -51z" />
    <glyph glyph-name="P" unicode="P" horiz-adv-x="542" 
d="M525 700q31 -18 57 -45t43.5 -59.5t25.5 -68.5t3 -72q-3 -36 -17 -67t-36.5 -57.5t-51 -48.5t-59.5 -40q-62 -31 -127 -51.5t-137 -31.5q-12 -18 -29.5 -41t-37.5 -47.5t-42 -49.5t-44 -47q-5 -5 -11.5 -1.5t-1.5 9.5q38 47 70.5 88.5t61.5 88.5q-76 -14 -157.5 -10.5
t-159.5 18.5q-5 5 -1.5 12t8.5 7q82 -14 162.5 -12t163.5 12q20 31 37 58.5t31 53.5t26.5 52.5t23.5 55.5q0 5 8 5t7 -5q-16 -57 -39.5 -106.5t-55.5 -106.5q45 9 94 22t95 33t85.5 49.5t65.5 71.5q21 33 28.5 71t3 75t-20.5 70.5t-44 59.5q-29 31 -64 49.5t-74.5 28
t-81 11.5t-82.5 0q-91 -5 -183.5 -23t-185.5 -49q-67 -21 -132 -52t-128 -67q11 -5 20.5 -6t20.5 -1t11 -10.5t-11 -10.5q-20 0 -37.5 2.5t-31.5 10.5q-7 5 -6 10.5t6 10.5q98 67 216 110t236 68q56 13 118.5 23t125.5 10t123.5 -13.5t111.5 -46.5z" />
    <glyph glyph-name="R" unicode="R" horiz-adv-x="693" 
d="M769 175q6 7 8.5 -2t-1.5 -13q-23 -40 -69 -79.5t-101 -70t-113 -48.5t-106 -16q-52 0 -101 16.5t-87 46.5q-75 58 -126 141q-5 12 9 19q45 14 104 35t131 61q36 19 68 41.5t56.5 49t40 56.5t18.5 65q0 38 -12.5 63.5t-34 41.5t-49.5 24t-59 11q-42 4 -88 -1t-89 -13.5
t-80.5 -18t-63.5 -15.5q-3 -1 -9 1t-10 4.5t-4 6t9 5.5q65 14 129 31t136 22q24 1 51.5 1.5t55 -3.5t53 -13t46.5 -26q35 -28 47 -67.5t0 -83.5q-12 -36 -30 -64t-41.5 -51.5t-52.5 -43t-63 -37.5q-58 -32 -113 -54t-121 -44q46 -78 115 -128t165 -54q54 -2 111 18
t108.5 50.5t94 67t68.5 68.5zM261 546q-7 -21 -20 -55t-29.5 -73.5t-36 -83t-39.5 -85t-40.5 -77.5t-38.5 -61q-7 -5 -12 -4.5t1 9.5q11 20 27 53t33.5 72.5t35.5 82t34.5 82t29.5 73.5t21 56q2 5 8 9.5t12 7t10.5 1.5t3.5 -7z" />
    <glyph glyph-name="S" unicode="S" horiz-adv-x="677" 
d="M623 214q21 -54 21 -99t-30 -80q-14 -16 -34 -28.5t-42.5 -22t-45.5 -15.5t-43 -9q-83 -13 -163.5 4.5t-151.5 62.5q-14 9 -29 21t-27.5 26.5t-20 31.5t-5.5 36q1 19 10 35.5t22.5 28.5t30 20.5t34.5 13.5q45 11 92.5 9t92.5 -13q37 -9 76.5 -25.5t61.5 -48.5q3 -5 1 -9
t-6 -5q-29 -8 -62 -5q-8 1 -8 7.5t8 7.5q11 1 21 1.5t21 2.5q-20 23 -51 34.5t-59 18.5q-45 11 -94.5 14t-94.5 -10q-16 -5 -30.5 -15t-24 -24.5t-11 -31.5t7.5 -35q14 -30 46 -53t71 -39t80 -25t73 -10q38 -2 84 3t85 22t62.5 48.5t17.5 82.5q-5 41 -26.5 80t-50 76t-61 71
t-60.5 64t-47.5 56t-22.5 47q-2 16 10 30t38 13q37 -1 72.5 -16t66.5 -39t57.5 -54t47.5 -60q2 -3 -7 -5.5t-16 4.5q-29 29 -56.5 57t-57.5 50q-26 19 -50 27.5t-40 8t-22 -8.5t3 -23q3 -12 19 -31.5t38.5 -44t49 -53.5t51.5 -59t46 -60.5t32 -57.5z" />
    <glyph glyph-name="Q" unicode="Q" horiz-adv-x="780" 
d="M773 475q0 -5 -4.5 -11t-8.5 -6q-3 0 -3 7q-9 34 -32.5 56t-54.5 35t-66.5 18.5t-68.5 5.5q-51 0 -108 -10.5t-112.5 -31.5t-105.5 -52.5t-88 -73t-60.5 -93t-22.5 -112.5q0 -54 21 -90.5t55.5 -58.5t78.5 -31.5t89 -9.5q65 0 130 17.5t122 47.5q-2 5 -8 14t-12 19.5
t-10.5 21.5t-5.5 19q-1 5 4.5 10t9.5 3q6 -3 12.5 -12.5t12.5 -20.5t11 -22.5t10 -18.5q26 17 53 37t49.5 45t36.5 55.5t14 68.5q0 20 -7 39.5t-18.5 35t-27 25t-33.5 9.5q-20 0 -40 -8.5t-37.5 -22.5t-30 -31.5t-16.5 -35.5q0 -10 -6 -10q-3 0 -3 10q3 22 16 44.5t33 40.5
t43.5 29.5t47.5 11.5q26 0 45 -14t32 -35t19 -44.5t6 -42.5q0 -39 -15 -73.5t-39 -63.5t-54 -51.5t-60 -37.5q6 -10 10.5 -17t8 -14t8 -14t10.5 -16q20 -32 48 -64t54 -64q3 -2 0.5 -4t-7 -3.5t-9.5 -1t-8 3.5q-47 52 -78.5 96t-59.5 87q-76 -38 -153.5 -54.5t-151.5 -16.5
q-43 0 -83.5 14t-72 41t-50.5 66.5t-19 90.5q0 70 25.5 127t68.5 102t98.5 78t114.5 54.5t117.5 32t108.5 10.5q38 0 75.5 -6t68 -21.5t53 -41.5t30.5 -66z" />
    <glyph glyph-name="u" unicode="u" horiz-adv-x="404" 
d="M487 167q-11 -20 -25 -38.5t-29.5 -32t-30.5 -21.5t-27 -8q-19 0 -30.5 7t-17.5 18.5t-6 25t3 26.5q-23 -24 -53.5 -51.5t-63.5 -47t-66 -24.5t-61 15q-16 12 -21 32.5t-2 44t13.5 46.5t25.5 41q11 10 22.5 10t3.5 -11q-11 -15 -21.5 -38t-13.5 -45.5t4.5 -40.5t32.5 -24
q26 -6 54.5 8t56.5 36.5t53 46t45 36.5q5 0 12.5 -4.5t4.5 -12.5q-4 -13 -3.5 -25t5 -21t14.5 -13t26 0q10 1 20.5 8.5t20.5 18t18 22t14 21.5q7 7 16.5 5.5t5.5 -10.5z" />
    <glyph glyph-name="i" unicode="i" horiz-adv-x="270" 
d="M339 170q5 9 8.5 9t5.5 -5t2 -12t-3 -11q-36 -54 -77 -75t-79 -18t-69 25.5t-48 54.5q-12 23 -9 34q3 4 11 7t13 -7q18 -35 47.5 -57t63.5 -25t69.5 15t64.5 65zM190 395q10 0 17 -3t9 -14q1 -6 -9.5 -13.5t-24.5 -3.5q-9 2 -13.5 9t-4.5 14.5t4.5 13.5t13.5 6q4 0 7 -5
q1 -2 1 -4z" />
    <glyph glyph-name="B" unicode="B" horiz-adv-x="589" 
d="M493 281q44 -17 63.5 -41.5t19.5 -50.5q0 -27 -19 -52.5t-57 -45.5q-45 -24 -95.5 -39.5t-102.5 -25.5t-104.5 -15t-101.5 -9h-96t-99 5t-95 17t-85 37q-11 8 -3.5 15.5t19.5 2.5q36 -17 78.5 -27.5t88 -16t92 -7t89.5 0.5q94 3 188.5 21t180.5 54q48 20 66.5 42.5
t15.5 44.5q-4 26 -24.5 45t-72.5 35q-47 14 -87 22t-86 16q-14 -66 -46.5 -126t-89.5 -98q-3 -2 -6.5 -1t-5.5 4.5t-1.5 7.5t5.5 8q45 35 72.5 89t46.5 121q-20 5 -37.5 9t-37.5 9q-5 1 -6 6t1 11t5.5 11t7.5 6q20 5 41 10.5t41 17.5q3 25 6.5 49.5t4.5 41.5
q-21 12 -42.5 22.5t-41.5 18.5q-83 34 -155.5 49.5t-149.5 19.5q-8 0 -8 8.5t8 8.5q45 0 91.5 -7t91.5 -19q57 -14 112.5 -34t93.5 -45v26q0 4 3.5 7t7.5 3.5t7.5 -2t3.5 -9.5v-42q13 -14 23 -32t7 -39q-2 -14 -11.5 -22t-29.5 -21q-1 -8 -3.5 -20t-3.5 -18
q66 -12 117.5 -24.5t104.5 -32.5zM288 457q-2 -14 -4 -29t-2 -20q7 3 10 9.5t3.5 14t-2 14.5t-5.5 11zM219 349q3 -2 13 -4t13 -2q1 6 1.5 10t1.5 8q-8 -4 -15.5 -6.5t-13.5 -5.5z" />
    <glyph glyph-name="T" unicode="T" horiz-adv-x="320" 
d="M189 466q0 6 4.5 10.5t10 6.5t9.5 -0.5t3 -11.5q-8 -133 -26.5 -244t-46.5 -216q-4 -11 -11.5 -12.5t-6.5 2.5q18 125 36.5 242t27.5 223zM784 618q9 0 10.5 -3t-0.5 -6.5t-6.5 -6t-6.5 -2.5q-140 -2 -278 -6.5t-276 -13.5t-275 -25t-274 -42q-3 -2 -5.5 1t-3.5 7t1 8
t8 5q272 53 548.5 74t557.5 10z" />
    <glyph glyph-name="U" unicode="U" horiz-adv-x="807" 
d="M880 176q5 3 10 -1t0 -8q-16 -18 -45 -36.5t-61.5 -32t-64.5 -19t-54 0.5q-23 6 -37 18t-21.5 28.5t-8.5 36.5t1 42q4 26 9 48t11 42.5t14 41t19 44.5q-22 -31 -41 -58.5t-41 -53.5q-35 -44 -74.5 -86t-84 -77t-93 -61t-100.5 -38q-15 -4 -33.5 -5.5t-36 0t-33.5 7.5
t-27 17q-22 17 -30 44t-7.5 57.5t7 60t12.5 51.5q16 49 38.5 98t49 94.5t56.5 85.5t60 72q6 7 10 6t5.5 -6.5t-0.5 -12.5t-7 -13q-54 -58 -104 -144t-82 -201q-7 -26 -11.5 -57t-0.5 -59t20.5 -49t51.5 -25q46 0 89.5 15.5t83.5 41t77 57t71 63.5q83 83 149.5 181.5
t129.5 208.5q2 4 7 5.5t9.5 0.5t7 -4.5t0.5 -7.5q-18 -41 -39 -81.5t-41 -81.5t-37.5 -83t-28.5 -85q-4 -17 -7 -38.5t-1.5 -42t10.5 -38t29 -27.5q22 -11 51 -7.5t59.5 14.5t58 27t46.5 30z" />
    <glyph glyph-name="V" unicode="V" horiz-adv-x="322" 
d="M341 392q5 7 11 8t10 -0.5t6 -5t0 -5.5q-37 -54 -67 -100t-58 -90.5t-55.5 -91t-59.5 -100.5q-5 -5 -11.5 -4t-11.5 10q-6 66 -11 121.5t-12 107.5t-16.5 103t-24.5 109q-17 67 -43 121.5t-62 87.5q-20 19 -40.5 25.5t-46.5 -2.5q-17 -6 -30.5 -23t-27.5 -39
q-4 -8 -12 -6.5t-5 10.5q10 22 23.5 41t31 31t37.5 15.5t42 -5.5q24 -10 45.5 -28.5t39 -41.5t30.5 -48.5t22 -49.5q21 -53 34 -114.5t21.5 -126t13 -130.5t8.5 -129q58 103 109 187t110 163z" />
    <glyph glyph-name="W" unicode="W" 
d="M856 517q0 5 5.5 7t6.5 -7q0 -70 -16 -135t-42 -127q-13 -30 -28 -61.5t-34 -60t-43.5 -51.5t-57.5 -36t-64 -9.5t-59 20t-51 44t-40 60.5q-15 30 -27 59t-21.5 58.5t-19 59.5t-20.5 63q-8 -42 -11 -77t-8 -69q-3 -31 -7.5 -63.5t-10 -64t-12.5 -60t-16 -51.5
q-11 -29 -36.5 -38t-56.5 15q-13 10 -25.5 25.5t-24 33.5t-21 38t-16.5 38q-27 69 -44 140t-33 154q-8 53 -14.5 111.5t-6.5 110.5q-1 5 2 7.5t7 2t7.5 -3.5t3.5 -7q-1 -26 3 -63.5t9 -68.5q12 -83 32.5 -165.5t49.5 -163.5q15 -43 39 -88t57 -73q14 -12 27 -8.5t18 16.5
q9 22 17 57t14 76t10.5 84.5t8.5 81.5q3 35 8.5 69.5t15.5 50.5q8 8 16 1.5t10 -14.5q21 -67 42.5 -128.5t51.5 -122.5q14 -30 34 -57t45 -44.5t54.5 -21t62.5 13.5q23 11 44.5 34t41 52.5t36 63t29.5 65.5q11 31 19.5 57t15.5 52t12.5 54.5t10.5 63.5z" />
    <glyph glyph-name="Y" unicode="Y" horiz-adv-x="630" 
d="M611 541q3 4 8.5 4.5t11.5 -1.5t10 -6.5t3 -8.5q-11 -63 -28 -120t-39.5 -113.5t-50 -115t-58.5 -124.5q-5 -10 -13 -15.5t-14.5 -6.5t-9 2.5t2.5 11.5q36 79 61 137t43.5 106.5t32.5 92.5t28 95q-22 -22 -48.5 -46.5t-55.5 -48.5t-60 -45.5t-63 -38.5
q-79 -37 -161 -47.5t-166 17.5q-60 23 -104 73.5t-62 111.5q-10 30 -13.5 63.5t-0.5 67.5t12.5 67t26.5 60q9 9 18.5 3t5.5 -15q-26 -58 -28 -122.5t17.5 -122t61 -101.5t103.5 -60q79 -23 155.5 -8t145.5 57q33 19 64.5 41.5t58.5 50.5q58 47 105 105z" />
    <glyph glyph-name="Z" unicode="Z" horiz-adv-x="990" 
d="M1066 175q5 5 8.5 -2.5t-2.5 -11.5q-47 -27 -87 -48.5t-78 -38t-78 -30t-87.5 -25t-105 -23t-131.5 -24.5q-49 -9 -114.5 -16t-131.5 -6q-19 0 -41.5 1t-45 5t-44 11t-37.5 18q-34 20 -45.5 48.5t-8.5 59t16.5 60t30.5 51.5q61 77 138 132.5t154 100.5q49 28 103.5 58
t114.5 52q-99 5 -197 3.5t-202 -1.5q-6 0 -10 3t-5.5 6.5t-0.5 6.5t7 3q60 0 119.5 2t118 2.5t117 -1.5t118.5 -11q14 -2 14.5 -9t-14.5 -12q-133 -40 -258.5 -114.5t-234.5 -170.5q-32 -33 -54.5 -65.5t-33.5 -70.5q-9 -34 -2.5 -57.5t23.5 -38.5t42 -22.5t53 -11t56.5 -4
t52.5 -0.5q54 0 104 4t99 11t98 16.5t101 21.5q54 13 95 25t80 27t82.5 35.5t103.5 50.5z" />
    <glyph glyph-name="X" unicode="X" horiz-adv-x="786" 
d="M1065 558q13 4 17.5 1t3 -10t-8 -14.5t-15.5 -10.5q-152 -54 -290 -112.5t-272 -134.5q54 -58 116.5 -121.5t137.5 -145.5q3 -3 2 -7.5t-4 -7.5t-7.5 -4t-7.5 2q-72 71 -136 135.5t-133 127.5q-73 -44 -138.5 -85t-128 -83.5t-124.5 -88t-129 -99.5t-141.5 -117.5
t-161.5 -141.5q-7 -6 -13 -6.5t-8.5 2.5t-1.5 9t7 12q91 86 195.5 174t211.5 170t211.5 153.5t196.5 124.5l-61.5 61.5t-61 60.5t-67 66t-79.5 79q-5 5 -3.5 10t6 8.5t11 3.5t12.5 -6q81 -76 146 -139.5t128 -123.5q61 32 130 67t144 69.5t154.5 65.5t161.5 56z" />
    <glyph glyph-name="ampersand" unicode="&#x26;" horiz-adv-x="527" 
d="M541 -29q8 -4 8.5 -12t-10.5 -8q-3 0 -5 1q-45 15 -87.5 43t-77 67.5t-59 89.5t-33.5 109q-13 -12 -35 -33.5t-43.5 -46.5t-37 -51t-15.5 -48q0 -12 9 -19t23.5 -11.5t32 -6t35.5 -1.5q23 0 42 1.5t26 1.5q4 0 6.5 -4t2.5 -9q0 -3 -9.5 -6.5t-25 -6.5t-35 -4.5
t-40.5 -1.5q-20 0 -38 2.5t-32.5 9.5t-23 18.5t-8.5 29.5q0 32 16.5 63.5t41 61t52.5 55.5t50 47q0 38 8 83t24 84t41 65.5t60 26.5q24 0 42 -15.5t18 -41.5q0 -27 -18 -56.5t-43.5 -58t-53 -55.5t-47.5 -48q1 -22 6.5 -46t15.5 -46q16 -40 39 -75.5t51 -64.5t60 -50t67 -33
zM320 424q-7 -23 -12 -46t-6 -46q32 29 58 54t51 64q7 9 14 22t8.5 26t-5.5 22t-26 9q-15 0 -28 -11.5t-24 -28t-18.5 -34.5t-11.5 -31z" />
    <glyph glyph-name="zero" unicode="0" horiz-adv-x="358" 
d="M287 443q7 2 10 -5.5t-3 -14.5q-15 -11 -34.5 -30.5t-27.5 -35.5q29 -15 37.5 -45.5t5.5 -65t-13.5 -67.5t-20.5 -55q-5 -10 -14.5 -26t-22 -33t-27 -31.5t-30 -22.5t-30.5 -6.5t-28 18.5q-15 18 -14 48.5t10.5 64t23 64.5t24.5 51q19 35 39.5 68.5t43.5 63.5
q14 20 34.5 38t36.5 22zM214 135q10 23 19.5 50.5t12.5 55.5t-2.5 53.5t-24.5 45.5q-18 -27 -38.5 -61t-38.5 -71.5t-29 -75.5t-9 -72q2 -11 8 -15.5t13.5 -4.5t15 3t13.5 9q20 17 34.5 39t25.5 44z" />
    <glyph glyph-name="one" unicode="1" horiz-adv-x="284" 
d="M161 545q15 -62 17 -126t2 -129q0 -69 -1.5 -137.5t-6.5 -136.5q-1 -5 -5 -7.5t-8 -2.5t-7.5 2.5t-4.5 7.5q-2 68 -1 136.5t3 137.5q0 58 -2.5 110t-5.5 109q-30 -28 -52.5 -54t-48.5 -56q-5 -6 -8.5 -1t0.5 10q29 37 54.5 72t58.5 70q3 4 9.5 2t6.5 -7z" />
    <glyph glyph-name="two" unicode="2" horiz-adv-x="312" 
d="M311 153q10 4 16 -4.5t1 -14.5q-52 -49 -115.5 -83t-129.5 -47q-13 -3 -19 5t-1 17q19 42 37 89.5t31 97t19 99.5t2 97q-3 38 -14.5 57t-26 23.5t-30.5 -3.5t-28 -25q-5 -7 -10.5 -9.5t-10.5 -2.5t-8 3t-2 6q5 16 21 33.5t36.5 25t43 0t40.5 -41.5q9 -16 12.5 -44
t3 -61.5t-4.5 -68.5t-11 -64q-10 -48 -25.5 -98.5t-34.5 -98.5q60 19 108.5 50t99.5 63z" />
    <glyph glyph-name="three" unicode="3" horiz-adv-x="395" 
d="M194 359q22 -16 54.5 -27t61.5 -24.5t50 -33.5t21 -54q-1 -16 -10 -30.5t-21.5 -27t-27.5 -22.5t-28 -17q-32 -17 -60 -29t-67 -29q-8 -4 -16 -2t-13.5 6t-5.5 9t8 8q32 11 61 23t50 23q9 5 26.5 15.5t34.5 23.5t28 28t7 30q-9 27 -32.5 41.5t-52.5 25.5l-58 22t-47 31
q-4 5 -4 11.5t4 10.5q17 15 36 28t38.5 25.5t38 26t33.5 30.5q-72 -5 -140.5 -22.5t-137.5 -34.5q-6 -1 -10 2.5t-5.5 8.5t0.5 10t8 7q77 16 152.5 32.5t153.5 19.5q8 0 10.5 -6t0.5 -12q-12 -21 -28.5 -37.5t-35.5 -30.5t-39 -28.5t-38 -30.5z" />
    <glyph glyph-name="four" unicode="4" horiz-adv-x="231" 
d="M168 117q5 -23 1 -42t-15 -39q-5 -7 -13.5 -5t-8.5 10q2 14 4 27t2 29q-42 -3 -61 23t-22 69t7 96t25 104t32.5 93.5t29.5 63.5q2 5 6 6t7 -1t5 -5.5t0 -7.5q-7 -17 -21 -56t-28.5 -86.5t-25.5 -97.5t-10.5 -90t15 -63.5t51.5 -16.5q7 2 12.5 -1.5t7.5 -9.5z" />
    <glyph glyph-name="five" unicode="5" horiz-adv-x="315" 
d="M356 553q10 -3 8.5 -14.5t-11.5 -11.5q-51 9 -106 10t-101 -4q10 -30 22 -60.5t23 -61.5t19 -62t11 -64q5 -61 -11 -103.5t-44 -69.5t-63.5 -40.5t-69.5 -16.5q-5 0 -8.5 3t-5 7.5t0 9t6.5 5.5q38 8 74 22.5t60 44.5q17 22 26 61.5t-5 106.5q-8 30 -18.5 59.5t-21.5 58.5
t-21 58t-17 58q-2 13 5 20t18 5q66 -2 119.5 -6t110.5 -15z" />
    <glyph glyph-name="six" unicode="6" horiz-adv-x="350" 
d="M312 595q4 4 6.5 2t3 -6.5t-1 -9.5t-3.5 -8q-36 -32 -62.5 -55.5t-48 -47.5t-41 -52.5t-42.5 -68.5q-11 -20 -23.5 -47t-20.5 -56t-9 -59t11 -56q31 6 62 -1t45 -24q7 -8 6 -23.5t-20 -23.5q-59 -12 -91 10t-42.5 62t-1 90t32.5 94q26 49 50 85.5t51 68t60.5 61
t78.5 65.5zM147 88q7 4 3.5 7.5t-12.5 6t-20 4t-18 1.5q7 -9 23 -16t24 -3z" />
    <glyph glyph-name="seven" unicode="7" horiz-adv-x="312" 
d="M21 431q-11 -1 -14 8.5t3 14.5q63 34 132.5 50.5t137.5 11.5q13 0 16.5 -9t-3.5 -17q-47 -57 -82.5 -108.5t-61 -107t-39.5 -119t-17 -142.5q0 -10 -5.5 -12.5t-12 0.5t-11.5 9t-4 13q3 69 18 128.5t39.5 115t58.5 109.5t75 111q-63 -3 -118 -20.5t-112 -35.5z" />
    <glyph glyph-name="eight" unicode="8" horiz-adv-x="290" 
d="M262 193q5 -43 -3.5 -81.5t-36.5 -70.5q-23 -25 -55 -38.5t-64 -3.5q-5 0 -6.5 5t0 10.5t5 10t9.5 4.5q18 -2 36.5 2.5t35 16t28.5 29t18 41.5q11 39 3 77t-25 73q-11 22 -23 44.5t-25 44.5q-6 -20 -13 -38.5t-15 -36.5q-20 -43 -41 -88.5t-32 -95.5q-4 -25 4.5 -35
t22.5 -11.5t31.5 2t31.5 5.5q6 2 9.5 -4.5t-1.5 -9.5q-13 -6 -32 -12t-37.5 -6.5t-33.5 6.5t-21 28q-4 19 -1 39.5t9.5 40.5t15.5 39t16 35q18 42 37 85t32 89q-19 32 -38 65.5t-35 69.5q-2 8 1.5 17t12.5 9q18 -1 35.5 -6t31.5 -15.5t22.5 -27.5t10.5 -41q0 -14 -2.5 -28.5
t-5.5 -28.5q30 -48 55 -99.5t33 -110.5zM146 489q-5 10 -15 16t-20 8q8 -18 19.5 -36t22.5 -36q2 12 0 23.5t-7 24.5z" />
    <glyph glyph-name="nine" unicode="9" horiz-adv-x="220" 
d="M191 408q9 5 13 -3.5t2 -16.5q-17 -53 -33 -96.5t-33 -87t-37 -91t-44 -107.5q-3 -5 -7.5 -6.5t-8.5 0t-5.5 5t0.5 8.5q31 90 63.5 175.5t66.5 183.5q-28 -5 -54 0t-45.5 19t-29.5 37t-5 56q0 5 5.5 9.5t10.5 4.5q46 -5 80 -30t61 -60zM65 463q1 -18 10 -31.5t22.5 -21.5
t30 -10.5t33.5 -0.5q-20 22 -43 41t-53 23z" />
    <glyph glyph-name="question" unicode="?" horiz-adv-x="372" 
d="M256 276q10 0 11 -10.5t-8 -12.5q-38 -8 -78.5 -10.5t-79.5 -2.5q-8 0 -13.5 8t-1.5 17q24 37 54 73t57.5 73.5t50 77t32.5 84.5q5 17 5.5 34.5t-14.5 30.5q-11 7 -22 8t-21.5 -3t-20.5 -11.5t-18 -15.5q-17 -16 -34.5 -40t-30 -51t-17 -55t5.5 -52q2 -6 -0.5 -11.5
t-6.5 -8t-8.5 -1.5t-7.5 8q-12 27 -10 58.5t13.5 62.5t29.5 59t39 47q14 15 35.5 27.5t44 15.5t41.5 -6.5t28 -38.5q9 -26 4.5 -53t-15.5 -53.5t-26 -51t-28 -44.5q-27 -41 -56 -78.5t-57 -77.5q30 0 61.5 0.5t61.5 3.5zM225 70q8 5 15 0t3 -13q-8 -13 -21.5 -19.5
t-27.5 -13.5q-8 -4 -14 -1t-8.5 9t-0.5 12.5t11 9.5q11 6 22.5 9.5t20.5 6.5z" />
    <glyph glyph-name="exclam" unicode="!" horiz-adv-x="326" 
d="M211 634q17 -57 18.5 -119.5t-3.5 -118.5q-5 -62 -12.5 -121.5t-22.5 -119.5q-2 -8 -10 -6t-8 10q5 58 11.5 116.5t8.5 120.5q5 58 1.5 115.5t-8.5 117.5q-2 6 1.5 9.5t8.5 4t9.5 -1.5t5.5 -7zM205 22q2 -8 -2.5 -12t-11.5 -1q-9 2 -16.5 9.5t-15.5 7.5q-11 -2 -16.5 7.5
t2.5 16.5q5 8 15.5 7.5t17.5 -7.5q8 -5 15.5 -12t11.5 -16z" />
    <glyph glyph-name="period" unicode="." horiz-adv-x="346" 
d="M162 52q10 0 17 -3t9 -14q1 -6 -9.5 -13.5t-24.5 -3.5q-9 2 -13.5 9t-4.5 14.5t4.5 13.5t13.5 6q4 0 7 -5q1 -2 1 -4z" />
    <glyph glyph-name="dieresis" unicode="&#xa8;" horiz-adv-x="386" 
d="M88 365q10 0 17 -3t9 -14q1 -6 -9.5 -13.5t-24.5 -3.5q-9 2 -13.5 9t-4.5 14.5t4.5 13.5t13.5 6q4 0 7 -5q1 -2 1 -4zM218 354q2 -8 -2.5 -12t-11.5 -1q-9 2 -16.5 9.5t-15.5 7.5q-11 -2 -16.5 7.5t2.5 16.5q5 8 15.5 7.5t17.5 -7.5q8 -5 15.5 -12t11.5 -16z" />
    <glyph glyph-name="acute" unicode="&#xb4;" horiz-adv-x="366" 
d="M276 427q5 4 11 2.5t10 -5.5t4.5 -10t-5.5 -11q-37 -29 -75 -52t-80 -46q-5 -3 -11 -3.5t-10 0.5t-5 4t5 7q42 27 81 56t75 58z" />
    <glyph glyph-name="Aacute" unicode="&#xc1;" horiz-adv-x="578" 
d="M527 618q13 7 18.5 2t4.5 -13q-7 -89 -13 -168t-10.5 -155t-7.5 -152.5t-3 -160.5q0 -14 -9.5 -16.5t-19.5 5.5q-38 31 -72.5 63t-71 63t-76 61t-86.5 57q-2 2 -17.5 -20t-37.5 -55t-46.5 -69.5t-43.5 -64.5q-1 -2 -5.5 -3t-8.5 -1t-6.5 2t0.5 7q12 20 31 50t40.5 61.5
t41.5 60t34 45.5q-34 21 -63 37t-59.5 28t-64 19.5t-76.5 10.5q-12 1 -28 0t-31 -4t-26.5 -8t-14.5 -11q-4 -6 0 -14.5t11.5 -16.5t16 -15t12.5 -11q4 -5 3 -11.5t-14 0.5q-8 4 -18 10.5t-18.5 14.5t-14.5 17t-6 20q0 17 10.5 27.5t24.5 18.5q19 6 40.5 8.5t43.5 2t44 -3.5
t41 -7q56 -13 105.5 -37t97.5 -54q72 104 157 199.5t191 180.5zM198 226q42 -27 82.5 -56t77.5 -58.5t69 -58t58 -53.5q1 33 3 79t5 98t6.5 108t7 109.5t7.5 101t8 83.5q-94 -76 -176.5 -164.5t-147.5 -188.5zM606 796q5 4 11 2.5t10 -5.5t4.5 -10t-5.5 -11q-37 -29 -75 -52
t-80 -46q-5 -3 -11 -3.5t-10 0.5t-5 4t5 7q42 27 81 56t75 58z" />
    <glyph glyph-name="Eacute" unicode="&#xc9;" horiz-adv-x="960" 
d="M1044 175q10 5 9.5 -2t-9.5 -12q-69 -37 -134.5 -60.5t-133 -37t-138 -19t-149.5 -6.5q-41 -1 -78 -0.5t-74.5 3t-77 8.5t-84.5 16q-57 13 -89.5 39.5t-35.5 52.5q-3 24 18 46.5t70 40.5q35 13 79 27.5t88 25.5q72 18 142 36.5t142 41.5q-30 27 -66 48t-75 36.5t-79 27
t-78 19.5q-6 3 -7.5 7.5t0 9.5t5.5 8.5t9 3.5q52 -6 108.5 -12t112 -11t106.5 -6.5t90 1.5q9 1 10 -2.5t-2 -8t-8.5 -8.5t-9.5 -4q-71 0 -137.5 1t-138.5 6q50 -16 95.5 -46.5t93.5 -62.5q9 -6 8 -12.5t-14 -11.5q-55 -20 -120.5 -36t-132.5 -34t-131.5 -39t-118.5 -49
q-26 -13 -23 -35q2 -13 19.5 -28.5t51.5 -26.5q48 -15 103 -24t119 -12.5t139 -1.5t164 11q48 4 92 10.5t88 16.5t88.5 25.5t93.5 39.5zM605 680q5 4 11 2.5t10 -5.5t4.5 -10t-5.5 -11q-37 -29 -75 -52t-80 -46q-5 -3 -11 -3.5t-10 0.5t-5 4t5 7q42 27 81 56t75 58z" />
    <glyph glyph-name="Iacute" unicode="&#xcd;" horiz-adv-x="402" 
d="M407 564q9 -74 -4.5 -159t-38.5 -172q-10 -33 -25.5 -72t-37.5 -73.5t-51 -60t-66 -32.5q-33 -7 -59 7t-44 40.5t-28 60.5t-10 67q0 9 8 10t8 -4q6 -28 18.5 -60t31 -55.5t43 -32t54.5 9.5q31 16 53 43t38.5 59.5t28.5 67.5t23 68q20 69 30 135.5t2 134.5q-3 28 -17 42
t-33.5 20.5t-42.5 8t-44 4.5q-4 0 -6.5 4t-3 8.5t1.5 8.5t8 3q22 -2 48.5 -3.5t49.5 -8.5t41 -23t24 -46zM318 778q5 4 11 2.5t10 -5.5t4.5 -10t-5.5 -11q-37 -29 -75 -52t-80 -46q-5 -3 -11 -3.5t-10 0.5t-5 4t5 7q42 27 81 56t75 58z" />
    <glyph glyph-name="Oacute" unicode="&#xd3;" 
d="M815 373q8 -16 11 -32t3 -33q0 -61 -28.5 -107.5t-73.5 -80.5t-99.5 -56.5t-106.5 -34.5q-52 -13 -106 -20.5t-111 -7.5q-17 0 -42.5 3t-54.5 10t-58 19t-52 30t-37.5 42t-14.5 56q0 40 21.5 83t58 84t86 77.5t105.5 64t116.5 43.5t118.5 16q42 0 83 -9.5t79 -29.5
q3 -3 3 -8q0 -8 -6 -8q-3 0 -4 2q-34 16 -70 23t-74 7q-42 0 -95 -12t-107.5 -34.5t-106.5 -53.5t-92.5 -69.5t-65 -83t-24.5 -92.5q0 -39 23.5 -64.5t59.5 -40.5t78.5 -20.5t80.5 -5.5q22 0 67 4.5t99 16t111 31t104 50t77 72.5t30 99q0 45 -23 75.5t-58.5 49.5t-77.5 28.5
t-79 12.5q-6 0 -6 6q0 8 13.5 8h22.5q31 0 65 -6t64 -19t54.5 -34t38.5 -51zM535 693q5 4 11 2.5t10 -5.5t4.5 -10t-5.5 -11q-37 -29 -75 -52t-80 -46q-5 -3 -11 -3.5t-10 0.5t-5 4t5 7q42 27 81 56t75 58z" />
    <glyph glyph-name="Odieresis" unicode="&#xd6;" 
d="M815 373q8 -16 11 -32t3 -33q0 -61 -28.5 -107.5t-73.5 -80.5t-99.5 -56.5t-106.5 -34.5q-52 -13 -106 -20.5t-111 -7.5q-17 0 -42.5 3t-54.5 10t-58 19t-52 30t-37.5 42t-14.5 56q0 40 21.5 83t58 84t86 77.5t105.5 64t116.5 43.5t118.5 16q42 0 83 -9.5t79 -29.5
q3 -3 3 -8q0 -8 -6 -8q-3 0 -4 2q-34 16 -70 23t-74 7q-42 0 -95 -12t-107.5 -34.5t-106.5 -53.5t-92.5 -69.5t-65 -83t-24.5 -92.5q0 -39 23.5 -64.5t59.5 -40.5t78.5 -20.5t80.5 -5.5q22 0 67 4.5t99 16t111 31t104 50t77 72.5t30 99q0 45 -23 75.5t-58.5 49.5t-77.5 28.5
t-79 12.5q-6 0 -6 6q0 8 13.5 8h22.5q31 0 65 -6t64 -19t54.5 -34t38.5 -51zM419 609q10 0 17 -3t9 -14q1 -6 -9.5 -13.5t-24.5 -3.5q-9 2 -13.5 9t-4.5 14.5t4.5 13.5t13.5 6q4 0 7 -5q1 -2 1 -4zM549 598q2 -8 -2.5 -12t-11.5 -1q-9 2 -16.5 9.5t-15.5 7.5
q-11 -2 -16.5 7.5t2.5 16.5q5 8 15.5 7.5t17.5 -7.5q8 -5 15.5 -12t11.5 -16z" />
    <glyph glyph-name="Uacute" unicode="&#xda;" horiz-adv-x="808" 
d="M589 733q5 4 11 2.5t10 -5.5t4.5 -10t-5.5 -11q-37 -29 -75 -52t-80 -46q-5 -3 -11 -3.5t-10 0.5t-5 4t5 7q42 27 81 56t75 58zM880 176q5 3 10 -1t0 -8q-16 -18 -45 -36.5t-61.5 -32t-64.5 -19t-54 0.5q-23 6 -37 18t-21.5 28.5t-8.5 36.5t1 42q4 26 9 48t11 42.5t14 41
t19 44.5q-22 -31 -41 -58.5t-41 -53.5q-35 -44 -74.5 -86t-84 -77t-93 -61t-100.5 -38q-15 -4 -33.5 -5.5t-36 0t-33.5 7.5t-27 17q-22 17 -30 44t-7.5 57.5t7 60t12.5 51.5q16 49 38.5 98t49 94.5t56.5 85.5t60 72q6 7 10 6t5.5 -6.5t-0.5 -12.5t-7 -13q-54 -58 -104 -144
t-82 -201q-7 -26 -11.5 -57t-0.5 -59t20.5 -49t51.5 -25q46 0 89.5 15.5t83.5 41t77 57t71 63.5q83 83 149.5 181.5t129.5 208.5q2 4 7 5.5t9.5 0.5t7 -4.5t0.5 -7.5q-18 -41 -39 -81.5t-41 -81.5t-37.5 -83t-28.5 -85q-4 -17 -7 -38.5t-1.5 -42t10.5 -38t29 -27.5
q22 -11 51 -7.5t59.5 14.5t58 27t46.5 30z" />
    <glyph glyph-name="eacute" unicode="&#xe9;" horiz-adv-x="384" 
d="M488 173q5 6 6.5 -2.5t-6.5 -13.5q-57 -37 -115 -62.5t-98 -39.5q-21 -7 -49 -13.5t-56.5 -7.5t-54.5 6t-44 28t-19.5 49t9.5 54.5t31.5 46t47.5 22.5q18 1 29 -3t16.5 -10.5t5.5 -15t-3 -15.5q-5 -10 -15.5 -18t-24 -12.5t-29 -3.5t-29.5 10q-8 -15 -10.5 -31t4.5 -30
q7 -16 20.5 -25.5t30 -14.5t34.5 -5.5t36 2.5q72 11 144.5 40.5t138.5 64.5zM126 210q-15 -8 -25 -20q14 -7 29 -6.5t20 10.5q8 11 1 19.5t-25 -3.5zM249 389q5 4 11 2.5t10 -5.5t4.5 -10t-5.5 -11q-37 -29 -75 -52t-80 -46q-5 -3 -11 -3.5t-10 0.5t-5 4t5 7q42 27 81 56
t75 58z" />
    <glyph glyph-name="iacute" unicode="&#xed;" horiz-adv-x="270" 
d="M203 427q5 4 11 2.5t10 -5.5t4.5 -10t-5.5 -11q-37 -29 -75 -52t-80 -46q-5 -3 -11 -3.5t-10 0.5t-5 4t5 7q42 27 81 56t75 58zM339 170q5 9 8.5 9t5.5 -5t2 -12t-3 -11q-36 -54 -77 -75t-79 -18t-69 25.5t-48 54.5q-12 23 -9 34q3 4 11 7t13 -7q18 -35 47.5 -57
t63.5 -25t69.5 15t64.5 65z" />
    <glyph glyph-name="oacute" unicode="&#xf3;" horiz-adv-x="352" 
d="M424 178q8 3 10.5 -1.5t2 -10.5t-4 -11.5t-8.5 -6.5q-42 -9 -83 -13t-78.5 -5t-69.5 0t-55 2q14 -14 29.5 -37.5t21.5 -47.5q4 -23 -13 -28q-26 -3 -48.5 6t-37.5 27t-22 43t-1 53q3 16 9 27t11 12q12 0 9 -20q-3 -21 -1 -41t9 -36.5t19 -28t29 -15.5q2 16 -10.5 39
t-35.5 46q-4 2 -4.5 7t1.5 10t5 8.5t6 3.5q71 -7 150 -7t160 25zM245 427q5 4 11 2.5t10 -5.5t4.5 -10t-5.5 -11q-37 -29 -75 -52t-80 -46q-5 -3 -11 -3.5t-10 0.5t-5 4t5 7q42 27 81 56t75 58z" />
    <glyph glyph-name="odieresis" unicode="&#xf6;" horiz-adv-x="352" 
d="M424 178q8 3 10.5 -1.5t2 -10.5t-4 -11.5t-8.5 -6.5q-42 -9 -83 -13t-78.5 -5t-69.5 0t-55 2q14 -14 29.5 -37.5t21.5 -47.5q4 -23 -13 -28q-26 -3 -48.5 6t-37.5 27t-22 43t-1 53q3 16 9 27t11 12q12 0 9 -20q-3 -21 -1 -41t9 -36.5t19 -28t29 -15.5q2 16 -10.5 39
t-35.5 46q-4 2 -4.5 7t1.5 10t5 8.5t6 3.5q71 -7 150 -7t160 25zM125 365q10 0 17 -3t9 -14q1 -6 -9.5 -13.5t-24.5 -3.5q-9 2 -13.5 9t-4.5 14.5t4.5 13.5t13.5 6q4 0 7 -5q1 -2 1 -4zM255 354q2 -8 -2.5 -12t-11.5 -1q-9 2 -16.5 9.5t-15.5 7.5q-11 -2 -16.5 7.5t2.5 16.5
q5 8 15.5 7.5t17.5 -7.5q8 -5 15.5 -12t11.5 -16z" />
    <glyph glyph-name="uacute" unicode="&#xfa;" horiz-adv-x="371" 
d="M326 427q5 4 11 2.5t10 -5.5t4.5 -10t-5.5 -11q-37 -29 -75 -52t-80 -46q-5 -3 -11 -3.5t-10 0.5t-5 4t5 7q42 27 81 56t75 58zM487 167q-11 -20 -25 -38.5t-29.5 -32t-30.5 -21.5t-27 -8q-19 0 -30.5 7t-17.5 18.5t-6 25t3 26.5q-23 -24 -53.5 -51.5t-63.5 -47
t-66 -24.5t-61 15q-16 12 -21 32.5t-2 44t13.5 46.5t25.5 41q11 10 22.5 10t3.5 -11q-11 -15 -21.5 -38t-13.5 -45.5t4.5 -40.5t32.5 -24q26 -6 54.5 8t56.5 36.5t53 46t45 36.5q5 0 12.5 -4.5t4.5 -12.5q-4 -13 -3.5 -25t5 -21t14.5 -13t26 0q10 1 20.5 8.5t20.5 18t18 22
t14 21.5q7 7 16.5 5.5t5.5 -10.5z" />
    <glyph glyph-name="udieresis" unicode="&#xfc;" horiz-adv-x="371" 
d="M135 365q10 0 17 -3t9 -14q1 -6 -9.5 -13.5t-24.5 -3.5q-9 2 -13.5 9t-4.5 14.5t4.5 13.5t13.5 6q4 0 7 -5q1 -2 1 -4zM265 354q2 -8 -2.5 -12t-11.5 -1q-9 2 -16.5 9.5t-15.5 7.5q-11 -2 -16.5 7.5t2.5 16.5q5 8 15.5 7.5t17.5 -7.5q8 -5 15.5 -12t11.5 -16zM487 167
q-11 -20 -25 -38.5t-29.5 -32t-30.5 -21.5t-27 -8q-19 0 -30.5 7t-17.5 18.5t-6 25t3 26.5q-23 -24 -53.5 -51.5t-63.5 -47t-66 -24.5t-61 15q-16 12 -21 32.5t-2 44t13.5 46.5t25.5 41q11 10 22.5 10t3.5 -11q-11 -15 -21.5 -38t-13.5 -45.5t4.5 -40.5t32.5 -24
q26 -6 54.5 8t56.5 36.5t53 46t45 36.5q5 0 12.5 -4.5t4.5 -12.5q-4 -13 -3.5 -25t5 -21t14.5 -13t26 0q10 1 20.5 8.5t20.5 18t18 22t14 21.5q7 7 16.5 5.5t5.5 -10.5z" />
    <glyph glyph-name="Udieresis" unicode="&#xdc;" horiz-adv-x="808" 
d="M395 679q10 0 17 -3t9 -14q1 -6 -9.5 -13.5t-24.5 -3.5q-9 2 -13.5 9t-4.5 14.5t4.5 13.5t13.5 6q4 0 7 -5q1 -2 1 -4zM525 668q2 -8 -2.5 -12t-11.5 -1q-9 2 -16.5 9.5t-15.5 7.5q-11 -2 -16.5 7.5t2.5 16.5q5 8 15.5 7.5t17.5 -7.5q8 -5 15.5 -12t11.5 -16zM880 176
q5 3 10 -1t0 -8q-16 -18 -45 -36.5t-61.5 -32t-64.5 -19t-54 0.5q-23 6 -37 18t-21.5 28.5t-8.5 36.5t1 42q4 26 9 48t11 42.5t14 41t19 44.5q-22 -31 -41 -58.5t-41 -53.5q-35 -44 -74.5 -86t-84 -77t-93 -61t-100.5 -38q-15 -4 -33.5 -5.5t-36 0t-33.5 7.5t-27 17
q-22 17 -30 44t-7.5 57.5t7 60t12.5 51.5q16 49 38.5 98t49 94.5t56.5 85.5t60 72q6 7 10 6t5.5 -6.5t-0.5 -12.5t-7 -13q-54 -58 -104 -144t-82 -201q-7 -26 -11.5 -57t-0.5 -59t20.5 -49t51.5 -25q46 0 89.5 15.5t83.5 41t77 57t71 63.5q83 83 149.5 181.5t129.5 208.5
q2 4 7 5.5t9.5 0.5t7 -4.5t0.5 -7.5q-18 -41 -39 -81.5t-41 -81.5t-37.5 -83t-28.5 -85q-4 -17 -7 -38.5t-1.5 -42t10.5 -38t29 -27.5q22 -11 51 -7.5t59.5 14.5t58 27t46.5 30z" />
    <glyph glyph-name="aacute" unicode="&#xe1;" horiz-adv-x="268" 
d="M269 197q2 -4 0 -8.5t-6.5 -7.5t-10 -4.5t-8.5 1.5q-14 11 -33.5 15.5t-46.5 -1.5q-26 -6 -49 -21.5t-39 -33t-21.5 -32t4.5 -17.5q14 -5 33 -2.5t37.5 9t33 14.5t20.5 15q12 14 22 14t12 -6q2 -14 3.5 -27.5t1.5 -24.5q0 -5 -8 -11t-16 3q-5 5 -7 13t-2 13
q-6 -6 -21.5 -13.5t-35.5 -13t-41 -9t-37 -1.5q-14 2 -24 8.5t-9 17.5q1 18 13.5 39.5t32.5 42t46.5 36t56.5 21.5q35 7 58 1t41 -30zM260 411q5 4 11 2.5t10 -5.5t4.5 -10t-5.5 -11q-37 -29 -75 -52t-80 -46q-5 -3 -11 -3.5t-10 0.5t-5 4t5 7q42 27 81 56t75 58z" />
  </font>
</defs>
</svg>
