 <svg version="1.0" xmlns="http://www.w3.org/2000/svg" width="700.000000pt" height="700.000000pt" viewBox="0 0 700.000000 700.000000" preserveAspectRatio="xMidYMid meet">

<g transform="translate(0.000000,700.000000) scale(0.100000,-0.100000)" fill="#fff" stroke="#fff">
<path d="M3240 6994 c-519 -60 -867 -168 -1265 -392 -839 -472 -1462 -1352
-1660 -2347 -61 -309 -69 -395 -69 -760 0 -290 3 -349 22 -483 65 -439 160
-758 333 -1122 366 -765 1001 -1374 1743 -1670 253 -101 437 -149 746 -197
181 -28 618 -25 802 5 230 37 341 63 513 119 914 295 1663 1017 2044 1971 174
434 255 855 256 1327 l0 250 -1220 5 -1220 5 -3 748 -2 747 -90 0 -90 0 0
-750 0 -750 -692 2 -693 3 -3 748 -2 747 -90 0 -90 0 0 -1800 0 -1800 90 0 90
0 2 948 3 947 690 0 690 0 3 -947 2 -948 90 0 90 0 2 948 3 947 1129 3 1129 2
-7 -157 c-32 -723 -286 -1415 -724 -1978 -101 -129 -380 -412 -502 -509 -125
-99 -348 -244 -490 -319 -322 -169 -655 -270 -1030 -313 -172 -19 -520 -14
-690 10 -630 91 -1210 385 -1676 850 -539 538 -877 1263 -960 2056 -20 193
-20 543 1 733 72 666 316 1272 717 1780 101 128 372 399 498 499 425 337 892
540 1425 620 190 29 572 31 750 4 470 -71 851 -214 1221 -459 392 -260 712
-594 960 -1001 l61 -101 107 -3 c82 -2 106 0 106 10 0 20 -121 224 -207 352
-238 349 -539 653 -883 888 -333 228 -710 390 -1102 473 -205 44 -334 57 -578
60 -135 2 -261 1 -280 -1z"></path>
</g>
</svg>